<svg width="8" height="6" viewBox="0 0 8 6" fill="none" xmlns="http://www.w3.org/2000/svg">
<path d="M6.15413 0.845826L3.15413 3.84583L1.87713 2.57583C1.76454 2.46324 1.61185 2.39999 1.45263 2.39999C1.29341 2.39999 1.14071 2.46324 1.02813 2.57583C0.915545 2.68841 0.852295 2.84111 0.852295 3.00033C0.852295 3.15955 0.915545 3.31224 1.02813 3.42483L2.75613 5.15583C2.81094 5.21321 2.87682 5.25889 2.94978 5.2901C3.02274 5.32131 3.10127 5.3374 3.18063 5.3374C3.25998 5.3374 3.33852 5.32131 3.41148 5.2901C3.48444 5.25889 3.55032 5.21321 3.60513 5.15583L7.03313 1.72783C7.09052 1.67302 7.1362 1.60714 7.1674 1.53418C7.19861 1.46122 7.2147 1.38268 7.2147 1.30333C7.2147 1.22397 7.19861 1.14544 7.1674 1.07247C7.1362 0.999512 7.09052 0.933636 7.03313 0.878827C6.97928 0.816241 6.91309 0.765441 6.8387 0.729609C6.76432 0.693778 6.68333 0.673686 6.60083 0.670588C6.51832 0.667491 6.43606 0.681455 6.3592 0.711608C6.28233 0.741761 6.21252 0.787454 6.15413 0.845826Z" fill="white"/>
</svg>
