<svg width="23" height="19" viewBox="0 0 23 19" fill="none" xmlns="http://www.w3.org/2000/svg">
<path d="M16.8333 0H11.2222H7.14141H1.5303C0.663131 0 0 0.663131 0 1.5303V16.8333C0 17.7005 0.663131 18.3636 1.5303 18.3636H16.8333C19.945 18.3636 22.4444 15.8641 22.4444 12.7525C22.4444 10.202 20.7101 8.00858 18.3636 7.34545V1.5303C18.3636 0.663131 17.7005 0 16.8333 0ZM10.7121 1.0202V6.63131C10.7121 6.93737 10.5081 7.14141 10.202 7.14141H8.16162C7.85556 7.14141 7.65152 6.93737 7.65152 6.63131V1.0202H10.7121ZM13.6197 17.3434H1.5303C1.22424 17.3434 1.0202 17.1394 1.0202 16.8333V1.5303C1.0202 1.22424 1.22424 1.0202 1.5303 1.0202H6.63131V6.63131C6.63131 7.49849 7.29444 8.16162 8.16162 8.16162H10.202C11.0692 8.16162 11.7323 7.49849 11.7323 6.63131V1.0202H16.8333C17.1394 1.0202 17.3434 1.22424 17.3434 1.5303V7.14141C17.1904 7.14141 16.9864 7.14141 16.8333 7.14141C13.7217 7.14141 11.2222 9.64091 11.2222 12.7525C11.2222 12.9566 11.2222 13.1606 11.2732 13.4157C11.2732 13.4667 11.2732 13.5687 11.3242 13.6197C11.3242 13.7727 11.3753 13.9258 11.4263 14.0278C11.4263 14.0788 11.4773 14.1808 11.4773 14.2318C11.5283 14.3848 11.5793 14.4869 11.5793 14.6399C11.5793 14.6909 11.6303 14.7929 11.6303 14.8439C11.6813 14.997 11.7323 15.15 11.8343 15.252C11.8343 15.303 11.8854 15.354 11.8854 15.405C11.9874 15.6091 12.0894 15.7621 12.1914 15.9152C12.2424 15.9662 12.2424 16.0172 12.2934 16.0682C12.3955 16.1702 12.4975 16.3232 12.5485 16.4253C12.5995 16.4763 12.6505 16.5273 12.7015 16.5783C12.8035 16.6803 12.9056 16.7823 13.0076 16.8843C13.0586 16.9354 13.1096 16.9864 13.1606 17.0374C13.2626 17.1394 13.3646 17.2414 13.4667 17.2924C13.5177 17.2924 13.5687 17.2924 13.6197 17.3434ZM21.4242 12.7525C21.4242 15.303 19.3838 17.3434 16.8333 17.3434C14.2828 17.3434 12.2424 15.303 12.2424 12.7525C12.2424 10.202 14.2828 8.16162 16.8333 8.16162C16.9864 8.16162 17.1394 8.16162 17.2924 8.16162C17.3434 8.16162 17.3434 8.16162 17.3944 8.16162C19.6389 8.46768 21.4242 10.4061 21.4242 12.7525Z" fill="#F16724"/>
</svg>
