<svg width="6" height="6" viewBox="0 0 6 6" fill="none" xmlns="http://www.w3.org/2000/svg">
<path d="M3.34332 2.24243V0.712127C3.34332 0.406067 3.13928 0.202026 2.83322 0.202026C2.52716 0.202026 2.32312 0.406067 2.32312 0.712127V2.24243H0.792816C0.486755 2.24243 0.282715 2.44647 0.282715 2.75253C0.282715 3.05859 0.486755 3.26263 0.792816 3.26263H2.32312V4.79293C2.32312 5.099 2.52716 5.30304 2.83322 5.30304C3.13928 5.30304 3.34332 5.099 3.34332 4.79293V3.26263H4.87362C5.17968 3.26263 5.38372 3.05859 5.38372 2.75253C5.38372 2.44647 5.17968 2.24243 4.87362 2.24243H3.34332Z" fill="#F16724"/>
</svg>
