<svg width="171" height="26" viewBox="0 0 171 26" fill="none" xmlns="http://www.w3.org/2000/svg">
<path d="M55.5777 8.72748L62.0083 0.459717H67.5201L57.8743 12.4021L61.5489 24.3444H56.4964L54.1998 16.0767L47.7693 24.3444H41.7981L51.9032 11.9428L48.2286 0.459717H53.2811L55.5777 8.72748Z" fill="white"/>
<path d="M72.1132 15.6169L69.8166 23.8847H65.2234L71.6539 0H80.381C81.2997 0 82.6776 -7.01553e-06 83.5962 0.459314C84.5149 0.918636 85.4335 1.37794 85.8929 1.83726C86.3522 2.29658 86.8115 3.21522 87.2708 4.13386C87.7302 5.05251 87.7302 5.97117 87.2708 7.34914C87.2708 8.7271 86.8115 9.64573 85.8929 10.5644C85.4335 11.483 84.5149 12.4017 83.5962 12.861C82.6776 13.3203 81.759 13.7796 80.381 14.239C79.003 14.6983 78.0844 14.6983 76.7064 14.6983L72.1132 15.6169ZM73.0318 11.9423H77.1658C77.6251 11.9423 78.5437 11.9424 79.003 11.483C79.4624 11.483 79.9217 11.0237 80.381 10.5644C80.8403 10.1051 81.2996 10.1051 81.2996 9.64574C81.759 9.18642 81.7589 8.72709 82.2183 7.80845C82.2183 7.34913 82.2183 6.88979 82.2183 6.43047C82.2183 5.97115 82.2183 5.51185 81.759 5.05253C81.759 4.59321 81.2996 4.59319 80.8403 4.13386C80.381 4.13386 79.9217 3.67455 79.4624 3.67455H74.8692L73.0318 11.9423Z" fill="white"/>
<path d="M97.8354 15.6173H94.1608L91.8642 24.3444H87.271L93.7015 0.459717H101.969C102.888 0.459717 104.266 0.45971 105.185 0.919031C106.103 1.37835 107.022 1.83769 107.481 2.29701C107.94 2.75633 108.4 3.67497 108.859 4.59362C109.318 5.51226 109.318 6.43089 108.859 7.80885C108.4 9.64614 107.94 11.0241 107.022 11.9428C106.103 12.8614 104.725 13.78 102.888 14.6987L105.185 24.3444V24.8037H100.132L97.8354 15.6173ZM95.0794 11.4834H98.754C99.2134 11.4834 100.132 11.4834 100.591 11.0241C101.051 11.0241 101.51 10.5648 101.969 10.1055C102.429 9.64614 102.888 9.18683 102.888 9.18683C103.347 8.72751 103.347 8.26817 103.807 7.80885C104.266 6.89021 103.807 5.97157 103.347 5.51225C102.888 5.05292 101.969 4.59362 101.051 4.59362H96.9167L95.0794 11.4834Z" fill="white"/>
<path d="M125.395 13.78H116.208L114.371 20.2105H124.935L124.017 24.3444H108.4L114.83 0.459717H130.447L129.528 4.59362H118.964L117.586 10.1055H126.773L125.395 13.78Z" fill="white"/>
<path d="M141.471 17.9131C141.471 17.4538 141.471 16.9944 141.471 16.5351C141.471 16.0758 141.012 15.6165 140.552 15.6165C140.093 15.1572 139.634 15.1572 139.174 15.1572C138.715 15.1572 138.256 14.6979 137.796 14.6979C137.337 14.6979 136.878 14.2385 135.959 14.2385C135.5 13.7792 135.04 13.7792 134.581 13.3199C134.122 12.8606 133.663 12.8606 133.203 12.4012C132.744 11.9419 132.285 11.4826 132.285 11.0233C131.825 10.5639 131.825 10.1046 131.825 9.64533C131.825 9.18601 131.825 8.26736 131.825 7.80803C131.825 6.88939 132.285 6.43007 132.285 5.51143C132.744 5.05211 133.203 4.13346 133.662 3.67413C134.122 3.21481 134.581 2.75551 135.5 2.29619C135.959 1.83687 136.878 1.83685 137.337 1.37753C137.796 0.918206 138.715 0.918213 139.634 0.918213C140.552 0.918213 141.012 0.918213 141.93 0.918213C142.849 0.918213 144.227 0.918206 145.146 1.37753C146.064 1.83685 146.983 2.29618 147.442 2.75551C147.901 3.21483 148.361 4.13347 148.82 5.05211C149.279 5.97076 149.279 6.88938 149.279 8.26735H144.686C144.686 7.34871 144.686 6.43006 144.227 5.97074C143.768 5.51142 142.849 5.05211 141.93 5.05211C141.471 5.05211 141.012 5.05211 140.552 5.05211C140.093 5.05211 139.634 5.51143 139.174 5.51143C138.715 5.51143 138.256 5.97073 138.256 6.43006C137.796 6.88938 137.796 7.34871 137.796 7.80803C137.796 8.26736 137.796 8.72669 137.796 9.18601C137.796 9.64533 138.256 9.64532 138.715 10.1046C139.174 10.564 139.634 10.564 140.093 10.564C140.552 10.564 141.012 11.0233 141.471 11.0233C142.39 11.4826 143.308 11.9419 143.768 11.9419C144.686 12.4013 145.146 12.8606 145.605 13.3199C146.064 13.7792 146.524 14.6978 146.983 15.6165C147.442 16.5351 147.442 17.4538 146.983 18.3724C146.983 19.2911 146.524 19.7504 146.064 20.669C145.605 21.1284 145.146 22.047 144.686 22.5063C144.227 22.9656 143.768 23.425 142.849 23.8843C142.39 24.3436 141.471 24.3436 141.012 24.8029C140.552 24.8029 139.634 25.2623 138.715 25.2623C137.796 25.2623 137.337 25.2623 136.418 25.2623C135.04 25.2623 134.122 25.2622 133.203 24.8029C132.285 24.3436 131.366 23.8843 130.447 23.4249C129.529 22.9656 129.069 22.047 129.069 21.1283C128.61 20.2097 128.61 19.2911 128.61 17.9131H133.203C133.203 19.2911 133.203 20.2097 133.662 20.669C134.122 21.1284 135.04 21.5877 136.418 21.5877C136.878 21.5877 137.337 21.5877 137.796 21.5877C138.256 21.5877 138.715 21.1283 139.174 21.1283C139.634 21.1283 140.093 20.669 140.093 20.2097C141.012 18.8317 141.471 18.3724 141.471 17.9131Z" fill="white"/>
<path d="M162.6 17.9131C162.6 17.4538 162.6 16.9944 162.6 16.5351C162.6 16.0758 162.14 15.6165 161.681 15.6165C161.222 15.1572 160.762 15.1572 160.303 15.1572C159.844 15.1572 159.384 14.6979 158.925 14.6979C158.466 14.6979 158.006 14.2385 157.088 14.2385C156.628 13.7792 156.169 13.7792 155.71 13.3199C155.251 12.8606 154.791 12.8606 154.332 12.4012C153.873 11.9419 153.413 11.4826 153.413 11.0233C152.954 10.5639 152.954 10.1046 152.954 9.64533C152.954 9.18601 152.954 8.26736 152.954 7.80803C152.954 6.88939 153.413 6.43007 153.413 5.51143C153.873 5.05211 154.332 4.13346 154.791 3.67413C155.251 3.21481 155.71 2.75551 156.628 2.29619C157.088 1.83687 158.006 1.83685 158.466 1.37753C159.384 0.918206 159.844 0.918213 160.762 0.918213C161.681 0.918213 162.14 0.918213 163.059 0.918213C163.978 0.918213 165.356 0.918206 166.274 1.37753C167.193 1.83685 168.112 2.29618 168.571 2.75551C169.03 3.21483 169.49 4.13347 169.949 5.05211C170.408 5.97076 170.408 6.88938 170.408 8.26735H165.815C165.815 7.34871 165.815 6.43006 165.356 5.97074C164.896 5.51142 163.978 5.05211 163.059 5.05211C162.6 5.05211 162.14 5.05211 161.681 5.05211C161.222 5.05211 160.762 5.51143 160.303 5.51143C159.844 5.51143 159.384 5.97073 159.384 6.43006C158.925 6.88938 158.925 7.34871 158.925 7.80803C158.925 8.26736 158.925 8.72669 158.925 9.18601C158.925 9.64533 159.384 9.64532 159.844 10.1046C160.303 10.564 160.762 10.564 161.222 10.564C161.681 10.564 162.14 11.0233 162.6 11.0233C163.518 11.4826 164.437 11.9419 164.896 11.9419C165.815 12.4013 166.274 12.8606 166.734 13.3199C167.193 13.7792 167.652 14.6978 168.112 15.6165C168.571 16.5351 168.571 17.4538 168.112 18.3724C168.112 19.2911 167.652 19.7504 167.193 20.669C166.734 21.1284 166.274 22.047 165.815 22.5063C165.356 22.9656 164.896 23.425 163.978 23.8843C163.518 24.3436 162.6 24.3436 162.14 24.8029C161.681 24.8029 160.762 25.2623 159.844 25.2623C158.925 25.2623 158.466 25.2623 157.547 25.2623C156.169 25.2623 155.251 25.2622 154.332 24.8029C153.413 24.3436 152.495 23.8843 151.576 23.4249C150.657 22.9656 150.198 22.047 150.198 21.1283C149.739 20.2097 149.739 19.2911 149.739 17.9131H154.332C154.332 19.2911 154.332 20.2097 154.791 20.669C155.251 21.1284 156.169 21.5877 157.547 21.5877C158.006 21.5877 158.466 21.5877 158.925 21.5877C159.384 21.5877 159.844 21.1283 160.303 21.1283C160.762 21.1283 161.222 20.669 161.222 20.2097C162.14 18.8317 162.14 18.3724 162.6 17.9131Z" fill="white"/>
<path d="M39.9609 13.78H30.7745L28.9373 20.2105H39.5016L38.583 24.3444H22.9661L29.3965 0.459717H45.0135L44.0948 4.59362H33.5305L32.1525 10.1055H41.3389L39.9609 13.78Z" fill="white"/>
<path d="M36.7458 1.83766C36.7458 2.7563 36.2864 3.21564 35.3678 3.21564H19.2916C18.3729 3.21564 17.9136 2.7563 17.9136 1.83766C17.9136 0.919017 18.3729 0.459717 19.2916 0.459717H35.3678C35.8271 0.459717 36.7458 0.919017 36.7458 1.83766Z" fill="white"/>
<path d="M34.9084 22.5071C34.9084 23.4258 34.4492 23.8851 33.5305 23.8851H16.9949C16.0763 23.8851 15.6169 23.4258 15.6169 22.5071C15.6169 21.5885 16.0763 21.1292 16.9949 21.1292H33.0712C33.9898 21.1292 34.9084 22.0478 34.9084 22.5071Z" fill="white"/>
<path d="M25.2627 6.89067C25.2627 7.80932 24.8034 8.26862 23.8848 8.26862H7.80852C6.88988 8.26862 6.43054 7.80932 6.43054 6.89067C6.43054 5.97203 6.88988 5.5127 7.80852 5.5127H23.8848C24.3441 5.5127 25.2627 6.43135 25.2627 6.89067Z" fill="white"/>
<path d="M30.7743 12.4022C30.7743 13.3209 30.315 13.7802 29.3964 13.7802H13.3201C12.4015 13.7802 11.9421 13.3209 11.9421 12.4022C11.9421 11.4836 12.4015 11.0243 13.3201 11.0243H29.3964C29.8557 10.565 30.7743 11.4836 30.7743 12.4022Z" fill="white"/>
<path d="M9.18665 12.4022C9.18665 13.3209 8.72731 13.7802 7.80867 13.7802H5.05271C4.13407 13.7802 3.6748 13.3209 3.6748 12.4022C3.6748 11.4836 4.13407 11.0243 5.05271 11.0243H7.80867C8.72731 10.565 9.18665 11.4836 9.18665 12.4022Z" fill="white"/>
<path d="M13.7798 22.5071C13.7798 23.4258 13.3205 23.8851 12.4018 23.8851H9.64585C8.72721 23.8851 8.26794 23.4258 8.26794 22.5071C8.26794 21.5885 8.72721 21.1292 9.64585 21.1292H12.4018C13.3205 21.1292 13.7798 22.0478 13.7798 22.5071Z" fill="white"/>
<path d="M26.6406 17.4542C26.6406 18.3728 26.1812 18.8321 25.2626 18.8321H22.5066C21.588 18.8321 21.1287 18.3728 21.1287 17.4542C21.1287 16.5355 21.588 16.0762 22.5066 16.0762H25.2626C26.1812 16.0762 26.6406 16.5355 26.6406 17.4542Z" fill="white"/>
<path d="M18.8321 17.4542C18.8321 18.3728 18.3729 18.8321 17.4542 18.8321H1.37798C0.459335 18.8321 0 18.3728 0 17.4542C0 16.5355 0.459335 16.0762 1.37798 16.0762H17.4542C17.9135 16.0762 18.8321 16.5355 18.8321 17.4542Z" fill="white"/>
</svg>
