<svg width="28" height="26" viewBox="0 0 28 26" fill="none" xmlns="http://www.w3.org/2000/svg">
<path d="M22.807 19.19C21.8218 19.19 20.8771 18.7987 20.1804 18.102C19.4838 17.4054 19.0925 16.4606 19.0925 15.4755C19.0925 14.4904 19.4838 13.5456 20.1804 12.849C20.8771 12.1523 21.8218 11.761 22.807 11.761H27.14V5.571C27.14 5.40683 27.0748 5.24939 26.9587 5.1333C26.8426 5.01722 26.6852 4.952 26.521 4.952H3.621C3.12849 4.952 2.65615 4.75635 2.3079 4.4081C1.95964 4.05984 1.764 3.58751 1.764 3.095C1.764 2.60249 1.95964 2.13016 2.3079 1.7819C2.65615 1.43365 3.12849 1.238 3.621 1.238H20.331V3.714H21.569V0.614C21.5677 0.450699 21.5019 0.294535 21.3859 0.17953C21.27 0.0645238 21.1133 -5.32736e-06 20.95 3.29875e-10H3.621C2.79882 3.29875e-10 2.01033 0.326606 1.42897 0.907969C0.847602 1.48933 0.520996 2.27783 0.520996 3.1V21.667C0.522319 22.8158 0.979256 23.9171 1.79156 24.7294C2.60387 25.5417 3.70522 25.9987 4.854 26H26.521C26.6852 26 26.8426 25.9348 26.9587 25.8187C27.0748 25.7026 27.14 25.5452 27.14 25.381V19.19H22.807Z" fill="#FF014E"/>
</svg>
